<mxfile host="65bd71144e">
    <diagram id="79A_zCAYgtmX0jncDNHq" name="Page-1">
        <mxGraphModel dx="613" dy="467" grid="1" gridSize="10" guides="1" tooltips="1" connect="1" arrows="1" fold="1" page="1" pageScale="1" pageWidth="850" pageHeight="1100" math="0" shadow="0">
            <root>
                <mxCell id="0"/>
                <mxCell id="1" parent="0"/>
                <mxCell id="2" value="Context Level DFD" style="text;html=1;strokeColor=none;fillColor=none;align=center;verticalAlign=middle;whiteSpace=wrap;rounded=0;fontSize=14;fontStyle=1" parent="1" vertex="1">
                    <mxGeometry x="350" y="20" width="150" height="30" as="geometry"/>
                </mxCell>
                <mxCell id="3" value="Club Connect&#10;Sports Management&#10;System" style="ellipse;whiteSpace=wrap;html=1;aspect=fixed;fontSize=12" parent="1" vertex="1">
                    <mxGeometry x="360" y="100" width="130" height="130" as="geometry"/>
                </mxCell>
                <mxCell id="4" value="Admin" style="rounded=0;whiteSpace=wrap;html=1;fontSize=12" parent="1" vertex="1">
                    <mxGeometry x="200" y="80" width="100" height="50" as="geometry"/>
                </mxCell>
                <mxCell id="5" value="Club Manager" style="rounded=0;whiteSpace=wrap;html=1;fontSize=12" parent="1" vertex="1">
                    <mxGeometry x="550" y="80" width="100" height="50" as="geometry"/>
                </mxCell>
                <mxCell id="6" value="Club Member" style="rounded=0;whiteSpace=wrap;html=1;fontSize=12" parent="1" vertex="1">
                    <mxGeometry x="375" y="280" width="100" height="50" as="geometry"/>
                </mxCell>
                <mxCell id="7" value="Admin Data" style="endArrow=classic;html=1;fontSize=10;" parent="1" source="4" target="3" edge="1">
                    <mxGeometry width="50" height="50" relative="1" as="geometry"/>
                </mxCell>
                <mxCell id="8" value="Manager Data" style="endArrow=classic;html=1;fontSize=10;" parent="1" source="5" target="3" edge="1">
                    <mxGeometry width="50" height="50" relative="1" as="geometry"/>
                </mxCell>
                <mxCell id="9" value="Member Data" style="endArrow=classic;html=1;fontSize=10;" parent="1" source="6" target="3" edge="1">
                    <mxGeometry width="50" height="50" relative="1" as="geometry"/>
                </mxCell>
                <mxCell id="10" value="Level 1 DFD" style="text;html=1;strokeColor=none;fillColor=none;align=center;verticalAlign=middle;whiteSpace=wrap;rounded=0;fontSize=14;fontStyle=1" parent="1" vertex="1">
                    <mxGeometry x="350" y="350" width="150" height="30" as="geometry"/>
                </mxCell>
                <mxCell id="11" value="1.0&#10;User Management" style="ellipse;whiteSpace=wrap;html=1;fontSize=12" parent="1" vertex="1">
                    <mxGeometry x="200" y="400" width="100" height="100" as="geometry"/>
                </mxCell>
                <mxCell id="12" value="2.0&#10;Club Management" style="ellipse;whiteSpace=wrap;html=1;fontSize=12" parent="1" vertex="1">
                    <mxGeometry x="375" y="400" width="100" height="100" as="geometry"/>
                </mxCell>
                <mxCell id="13" value="3.0&#10;Event Management" style="ellipse;whiteSpace=wrap;html=1;fontSize=12" parent="1" vertex="1">
                    <mxGeometry x="550" y="400" width="100" height="100" as="geometry"/>
                </mxCell>
                <mxCell id="14" value="D1 User Database" style="shape=partialRectangle;whiteSpace=wrap;html=1;left=0;right=0;fontSize=12" parent="1" vertex="1">
                    <mxGeometry x="200" y="550" width="100" height="30" as="geometry"/>
                </mxCell>
                <mxCell id="15" value="D2 Club Database" style="shape=partialRectangle;whiteSpace=wrap;html=1;left=0;right=0;fontSize=12" parent="1" vertex="1">
                    <mxGeometry x="375" y="550" width="100" height="30" as="geometry"/>
                </mxCell>
                <mxCell id="16" value="D3 Event Database" style="shape=partialRectangle;whiteSpace=wrap;html=1;left=0;right=0;fontSize=12" parent="1" vertex="1">
                    <mxGeometry x="550" y="550" width="100" height="30" as="geometry"/>
                </mxCell>
                <mxCell id="17" value="" style="endArrow=classic;html=1;fontSize=10;" parent="1" source="11" target="14" edge="1">
                    <mxGeometry width="50" height="50" relative="1" as="geometry"/>
                </mxCell>
                <mxCell id="18" value="" style="endArrow=classic;html=1;fontSize=10;" parent="1" source="12" target="15" edge="1">
                    <mxGeometry width="50" height="50" relative="1" as="geometry"/>
                </mxCell>
                <mxCell id="19" value="" style="endArrow=classic;html=1;fontSize=10;" parent="1" source="13" target="16" edge="1">
                    <mxGeometry width="50" height="50" relative="1" as="geometry"/>
                </mxCell>
                <mxCell id="20" value="1.1&#10;Register User" style="rounded=1;whiteSpace=wrap;html=1;fontSize=12" parent="1" vertex="1">
                    <mxGeometry x="100" y="620" width="120" height="60" as="geometry"/>
                </mxCell>
                <mxCell id="21" value="1.2&#10;Update User Profile" style="rounded=1;whiteSpace=wrap;html=1;fontSize=12" parent="1" vertex="1">
                    <mxGeometry x="230" y="620" width="120" height="60" as="geometry"/>
                </mxCell>
                <mxCell id="22" value="1.3&#10;Delete User" style="rounded=1;whiteSpace=wrap;html=1;fontSize=12" parent="1" vertex="1">
                    <mxGeometry x="360" y="620" width="120" height="60" as="geometry"/>
                </mxCell>
                <mxCell id="23" value="1.4&#10;View User Details" style="rounded=1;whiteSpace=wrap;html=1;fontSize=12" parent="1" vertex="1">
                    <mxGeometry x="490" y="620" width="120" height="60" as="geometry"/>
                </mxCell>
                <mxCell id="24" value="2.1&#10;Create Club" style="rounded=1;whiteSpace=wrap;html=1;fontSize=12" parent="1" vertex="1">
                    <mxGeometry x="250" y="700" width="120" height="60" as="geometry"/>
                </mxCell>
                <mxCell id="25" value="2.2&#10;Assign Manager" style="rounded=1;whiteSpace=wrap;html=1;fontSize=12" parent="1" vertex="1">
                    <mxGeometry x="380" y="700" width="120" height="60" as="geometry"/>
                </mxCell>
                <mxCell id="26" value="2.3&#10;Add Club Member" style="rounded=1;whiteSpace=wrap;html=1;fontSize=12" parent="1" vertex="1">
                    <mxGeometry x="510" y="700" width="120" height="60" as="geometry"/>
                </mxCell>
                <mxCell id="27" value="2.4&#10;Manage Club" style="rounded=1;whiteSpace=wrap;html=1;fontSize=12" parent="1" vertex="1">
                    <mxGeometry x="640" y="700" width="120" height="60" as="geometry"/>
                </mxCell>
                <mxCell id="28" value="3.1&#10;Create Event" style="rounded=1;whiteSpace=wrap;html=1;fontSize=12" parent="1" vertex="1">
                    <mxGeometry x="275" y="780" width="120" height="60" as="geometry"/>
                </mxCell>
                <mxCell id="29" value="3.2&#10;Assign Members" style="rounded=1;whiteSpace=wrap;html=1;fontSize=12" parent="1" vertex="1">
                    <mxGeometry x="405" y="780" width="120" height="60" as="geometry"/>
                </mxCell>
                <mxCell id="30" value="3.3&#10;View Event" style="rounded=1;whiteSpace=wrap;html=1;fontSize=12" parent="1" vertex="1">
                    <mxGeometry x="535" y="780" width="120" height="60" as="geometry"/>
                </mxCell>
                <mxCell id="31" value="3.4&#10;Manage Results" style="rounded=1;whiteSpace=wrap;html=1;fontSize=12" parent="1" vertex="1">
                    <mxGeometry x="665" y="780" width="120" height="60" as="geometry"/>
                </mxCell>
            </root>
        </mxGraphModel>
    </diagram>
</mxfile>